<?xml version="1.0" encoding="utf-8" ?>
<svg baseProfile="full" height="98px" version="1.1" width="728px" xmlns="http://www.w3.org/2000/svg" xmlns:ev="http://www.w3.org/2001/xml-events" xmlns:xlink="http://www.w3.org/1999/xlink"><defs><style type="text/css"><![CDATA[
    @keyframes moveSub {
        0% { transform: translate(56px, 56px); }
11% { transform: translate(210px, 0px); }
22% { transform: translate(308px, 84px); }
33% { transform: translate(322px, 28px); }
44% { transform: translate(336px, 70px); }
55% { transform: translate(364px, 56px); }
66% { transform: translate(406px, 14px); }
77% { transform: translate(476px, 14px); }
88% { transform: translate(686px, 14px); }
100% { transform: translate(700px, 84px); }
    }
    #sub {
        animation: moveSub 23s linear infinite;
        transform-origin: 0 0;
    }
    .bubble {
        animation: bubbleRise 1.5s ease-in infinite;
    }
    @keyframes bubbleRise {
        0% { opacity: 0.6; transform: translate(0, 0); }
        100% { opacity: 0; transform: translate(0, -12px); }
    }
    ]]></style></defs><rect fill="#caedfa" height="12" width="12" x="0" y="0" /><rect fill="#caedfa" height="12" width="12" x="0" y="14" /><rect fill="#caedfa" height="12" width="12" x="0" y="28" /><rect fill="#caedfa" height="12" width="12" x="0" y="42" /><rect fill="#caedfa" height="12" width="12" x="0" y="56" /><rect fill="#caedfa" height="12" width="12" x="0" y="70" /><rect fill="#caedfa" height="12" width="12" x="0" y="84" /><rect fill="#caedfa" height="12" width="12" x="14" y="0" /><rect fill="#caedfa" height="12" width="12" x="14" y="14" /><rect fill="#caedfa" height="12" width="12" x="14" y="28" /><rect fill="#caedfa" height="12" width="12" x="14" y="42" /><rect fill="#caedfa" height="12" width="12" x="14" y="56" /><rect fill="#caedfa" height="12" width="12" x="14" y="70" /><rect fill="#caedfa" height="12" width="12" x="14" y="84" /><rect fill="#caedfa" height="12" width="12" x="28" y="0" /><rect fill="#caedfa" height="12" width="12" x="28" y="14" /><rect fill="#caedfa" height="12" width="12" x="28" y="28" /><rect fill="#caedfa" height="12" width="12" x="28" y="42" /><rect fill="#caedfa" height="12" width="12" x="28" y="56" /><rect fill="#caedfa" height="12" width="12" x="28" y="70" /><rect fill="#caedfa" height="12" width="12" x="28" y="84" /><rect fill="#caedfa" height="12" width="12" x="42" y="0" /><rect fill="#caedfa" height="12" width="12" x="42" y="14" /><rect fill="#caedfa" height="12" width="12" x="42" y="28" /><rect fill="#caedfa" height="12" width="12" x="42" y="42" /><rect fill="#caedfa" height="12" width="12" x="42" y="56" /><rect fill="#caedfa" height="12" width="12" x="42" y="70" /><rect fill="#caedfa" height="12" width="12" x="42" y="84" /><rect fill="#caedfa" height="12" width="12" x="56" y="0" /><rect fill="#caedfa" height="12" width="12" x="56" y="14" /><rect fill="#caedfa" height="12" width="12" x="56" y="28" /><rect fill="#caedfa" height="12" width="12" x="56" y="42" /><rect fill="#caedfa" height="12" width="12" x="56" y="56" /><rect fill="#caedfa" height="12" width="12" x="56" y="70" /><rect fill="#caedfa" height="12" width="12" x="56" y="84" /><rect fill="#caedfa" height="12" width="12" x="70" y="0" /><rect fill="#caedfa" height="12" width="12" x="70" y="14" /><rect fill="#caedfa" height="12" width="12" x="70" y="28" /><rect fill="#caedfa" height="12" width="12" x="70" y="42" /><rect fill="#caedfa" height="12" width="12" x="70" y="56" /><rect fill="#caedfa" height="12" width="12" x="70" y="70" /><rect fill="#caedfa" height="12" width="12" x="70" y="84" /><rect fill="#caedfa" height="12" width="12" x="84" y="0" /><rect fill="#caedfa" height="12" width="12" x="84" y="14" /><rect fill="#caedfa" height="12" width="12" x="84" y="28" /><rect fill="#caedfa" height="12" width="12" x="84" y="42" /><rect fill="#caedfa" height="12" width="12" x="84" y="56" /><rect fill="#caedfa" height="12" width="12" x="84" y="70" /><rect fill="#caedfa" height="12" width="12" x="84" y="84" /><rect fill="#caedfa" height="12" width="12" x="98" y="0" /><rect fill="#caedfa" height="12" width="12" x="98" y="14" /><rect fill="#caedfa" height="12" width="12" x="98" y="28" /><rect fill="#caedfa" height="12" width="12" x="98" y="42" /><rect fill="#caedfa" height="12" width="12" x="98" y="56" /><rect fill="#caedfa" height="12" width="12" x="98" y="70" /><rect fill="#caedfa" height="12" width="12" x="98" y="84" /><rect fill="#caedfa" height="12" width="12" x="112" y="0" /><rect fill="#caedfa" height="12" width="12" x="112" y="14" /><rect fill="#caedfa" height="12" width="12" x="112" y="28" /><rect fill="#caedfa" height="12" width="12" x="112" y="42" /><rect fill="#caedfa" height="12" width="12" x="112" y="56" /><rect fill="#caedfa" height="12" width="12" x="112" y="70" /><rect fill="#caedfa" height="12" width="12" x="112" y="84" /><rect fill="#caedfa" height="12" width="12" x="126" y="0" /><rect fill="#caedfa" height="12" width="12" x="126" y="14" /><rect fill="#caedfa" height="12" width="12" x="126" y="28" /><rect fill="#caedfa" height="12" width="12" x="126" y="42" /><rect fill="#caedfa" height="12" width="12" x="126" y="56" /><rect fill="#caedfa" height="12" width="12" x="126" y="70" /><rect fill="#caedfa" height="12" width="12" x="126" y="84" /><rect fill="#caedfa" height="12" width="12" x="140" y="0" /><rect fill="#caedfa" height="12" width="12" x="140" y="14" /><rect fill="#caedfa" height="12" width="12" x="140" y="28" /><rect fill="#caedfa" height="12" width="12" x="140" y="42" /><rect fill="#caedfa" height="12" width="12" x="140" y="56" /><rect fill="#caedfa" height="12" width="12" x="140" y="70" /><rect fill="#caedfa" height="12" width="12" x="140" y="84" /><rect fill="#caedfa" height="12" width="12" x="154" y="0" /><rect fill="#caedfa" height="12" width="12" x="154" y="14" /><rect fill="#caedfa" height="12" width="12" x="154" y="28" /><rect fill="#caedfa" height="12" width="12" x="154" y="42" /><rect fill="#caedfa" height="12" width="12" x="154" y="56" /><rect fill="#caedfa" height="12" width="12" x="154" y="70" /><rect fill="#caedfa" height="12" width="12" x="154" y="84" /><rect fill="#caedfa" height="12" width="12" x="168" y="0" /><rect fill="#caedfa" height="12" width="12" x="168" y="14" /><rect fill="#caedfa" height="12" width="12" x="168" y="28" /><rect fill="#caedfa" height="12" width="12" x="168" y="42" /><rect fill="#caedfa" height="12" width="12" x="168" y="56" /><rect fill="#caedfa" height="12" width="12" x="168" y="70" /><rect fill="#caedfa" height="12" width="12" x="168" y="84" /><rect fill="#caedfa" height="12" width="12" x="182" y="0" /><rect fill="#caedfa" height="12" width="12" x="182" y="14" /><rect fill="#caedfa" height="12" width="12" x="182" y="28" /><rect fill="#caedfa" height="12" width="12" x="182" y="42" /><rect fill="#caedfa" height="12" width="12" x="182" y="56" /><rect fill="#caedfa" height="12" width="12" x="182" y="70" /><rect fill="#caedfa" height="12" width="12" x="182" y="84" /><rect fill="#caedfa" height="12" width="12" x="196" y="0" /><rect fill="#caedfa" height="12" width="12" x="196" y="14" /><rect fill="#caedfa" height="12" width="12" x="196" y="28" /><rect fill="#caedfa" height="12" width="12" x="196" y="42" /><rect fill="#caedfa" height="12" width="12" x="196" y="56" /><rect fill="#caedfa" height="12" width="12" x="196" y="70" /><rect fill="#caedfa" height="12" width="12" x="196" y="84" /><rect fill="#caedfa" height="12" width="12" x="210" y="0" /><rect fill="#caedfa" height="12" width="12" x="210" y="14" /><rect fill="#caedfa" height="12" width="12" x="210" y="28" /><rect fill="#caedfa" height="12" width="12" x="210" y="42" /><rect fill="#caedfa" height="12" width="12" x="210" y="56" /><rect fill="#caedfa" height="12" width="12" x="210" y="70" /><rect fill="#caedfa" height="12" width="12" x="210" y="84" /><rect fill="#caedfa" height="12" width="12" x="224" y="0" /><rect fill="#caedfa" height="12" width="12" x="224" y="14" /><rect fill="#caedfa" height="12" width="12" x="224" y="28" /><rect fill="#caedfa" height="12" width="12" x="224" y="42" /><rect fill="#caedfa" height="12" width="12" x="224" y="56" /><rect fill="#caedfa" height="12" width="12" x="224" y="70" /><rect fill="#caedfa" height="12" width="12" x="224" y="84" /><rect fill="#caedfa" height="12" width="12" x="238" y="0" /><rect fill="#caedfa" height="12" width="12" x="238" y="14" /><rect fill="#caedfa" height="12" width="12" x="238" y="28" /><rect fill="#caedfa" height="12" width="12" x="238" y="42" /><rect fill="#caedfa" height="12" width="12" x="238" y="56" /><rect fill="#caedfa" height="12" width="12" x="238" y="70" /><rect fill="#caedfa" height="12" width="12" x="238" y="84" /><rect fill="#caedfa" height="12" width="12" x="252" y="0" /><rect fill="#caedfa" height="12" width="12" x="252" y="14" /><rect fill="#caedfa" height="12" width="12" x="252" y="28" /><rect fill="#caedfa" height="12" width="12" x="252" y="42" /><rect fill="#caedfa" height="12" width="12" x="252" y="56" /><rect fill="#caedfa" height="12" width="12" x="252" y="70" /><rect fill="#caedfa" height="12" width="12" x="252" y="84" /><rect fill="#caedfa" height="12" width="12" x="266" y="0" /><rect fill="#caedfa" height="12" width="12" x="266" y="14" /><rect fill="#caedfa" height="12" width="12" x="266" y="28" /><rect fill="#caedfa" height="12" width="12" x="266" y="42" /><rect fill="#caedfa" height="12" width="12" x="266" y="56" /><rect fill="#caedfa" height="12" width="12" x="266" y="70" /><rect fill="#caedfa" height="12" width="12" x="266" y="84" /><rect fill="#caedfa" height="12" width="12" x="280" y="0" /><rect fill="#caedfa" height="12" width="12" x="280" y="14" /><rect fill="#caedfa" height="12" width="12" x="280" y="28" /><rect fill="#caedfa" height="12" width="12" x="280" y="42" /><rect fill="#caedfa" height="12" width="12" x="280" y="56" /><rect fill="#caedfa" height="12" width="12" x="280" y="70" /><rect fill="#caedfa" height="12" width="12" x="280" y="84" /><rect fill="#caedfa" height="12" width="12" x="294" y="0" /><rect fill="#caedfa" height="12" width="12" x="294" y="14" /><rect fill="#caedfa" height="12" width="12" x="294" y="28" /><rect fill="#caedfa" height="12" width="12" x="294" y="42" /><rect fill="#caedfa" height="12" width="12" x="294" y="56" /><rect fill="#caedfa" height="12" width="12" x="294" y="70" /><rect fill="#caedfa" height="12" width="12" x="294" y="84" /><rect fill="#caedfa" height="12" width="12" x="308" y="0" /><rect fill="#caedfa" height="12" width="12" x="308" y="14" /><rect fill="#caedfa" height="12" width="12" x="308" y="28" /><rect fill="#caedfa" height="12" width="12" x="308" y="42" /><rect fill="#caedfa" height="12" width="12" x="308" y="56" /><rect fill="#caedfa" height="12" width="12" x="308" y="70" /><rect fill="#caedfa" height="12" width="12" x="308" y="84" /><rect fill="#caedfa" height="12" width="12" x="322" y="0" /><rect fill="#caedfa" height="12" width="12" x="322" y="14" /><rect fill="#caedfa" height="12" width="12" x="322" y="28" /><rect fill="#caedfa" height="12" width="12" x="322" y="42" /><rect fill="#caedfa" height="12" width="12" x="322" y="56" /><rect fill="#caedfa" height="12" width="12" x="322" y="70" /><rect fill="#caedfa" height="12" width="12" x="322" y="84" /><rect fill="#caedfa" height="12" width="12" x="336" y="0" /><rect fill="#caedfa" height="12" width="12" x="336" y="14" /><rect fill="#caedfa" height="12" width="12" x="336" y="28" /><rect fill="#caedfa" height="12" width="12" x="336" y="42" /><rect fill="#caedfa" height="12" width="12" x="336" y="56" /><rect fill="#caedfa" height="12" width="12" x="336" y="70" /><rect fill="#caedfa" height="12" width="12" x="336" y="84" /><rect fill="#caedfa" height="12" width="12" x="350" y="0" /><rect fill="#caedfa" height="12" width="12" x="350" y="14" /><rect fill="#caedfa" height="12" width="12" x="350" y="28" /><rect fill="#caedfa" height="12" width="12" x="350" y="42" /><rect fill="#caedfa" height="12" width="12" x="350" y="56" /><rect fill="#caedfa" height="12" width="12" x="350" y="70" /><rect fill="#caedfa" height="12" width="12" x="350" y="84" /><rect fill="#caedfa" height="12" width="12" x="364" y="0" /><rect fill="#caedfa" height="12" width="12" x="364" y="14" /><rect fill="#caedfa" height="12" width="12" x="364" y="28" /><rect fill="#caedfa" height="12" width="12" x="364" y="42" /><rect fill="#caedfa" height="12" width="12" x="364" y="56" /><rect fill="#caedfa" height="12" width="12" x="364" y="70" /><rect fill="#caedfa" height="12" width="12" x="364" y="84" /><rect fill="#caedfa" height="12" width="12" x="378" y="0" /><rect fill="#caedfa" height="12" width="12" x="378" y="14" /><rect fill="#caedfa" height="12" width="12" x="378" y="28" /><rect fill="#caedfa" height="12" width="12" x="378" y="42" /><rect fill="#caedfa" height="12" width="12" x="378" y="56" /><rect fill="#caedfa" height="12" width="12" x="378" y="70" /><rect fill="#caedfa" height="12" width="12" x="378" y="84" /><rect fill="#caedfa" height="12" width="12" x="392" y="0" /><rect fill="#caedfa" height="12" width="12" x="392" y="14" /><rect fill="#caedfa" height="12" width="12" x="392" y="28" /><rect fill="#caedfa" height="12" width="12" x="392" y="42" /><rect fill="#caedfa" height="12" width="12" x="392" y="56" /><rect fill="#caedfa" height="12" width="12" x="392" y="70" /><rect fill="#caedfa" height="12" width="12" x="392" y="84" /><rect fill="#caedfa" height="12" width="12" x="406" y="0" /><rect fill="#caedfa" height="12" width="12" x="406" y="14" /><rect fill="#caedfa" height="12" width="12" x="406" y="28" /><rect fill="#caedfa" height="12" width="12" x="406" y="42" /><rect fill="#caedfa" height="12" width="12" x="406" y="56" /><rect fill="#caedfa" height="12" width="12" x="406" y="70" /><rect fill="#caedfa" height="12" width="12" x="406" y="84" /><rect fill="#caedfa" height="12" width="12" x="420" y="0" /><rect fill="#caedfa" height="12" width="12" x="420" y="14" /><rect fill="#caedfa" height="12" width="12" x="420" y="28" /><rect fill="#caedfa" height="12" width="12" x="420" y="42" /><rect fill="#caedfa" height="12" width="12" x="420" y="56" /><rect fill="#caedfa" height="12" width="12" x="420" y="70" /><rect fill="#caedfa" height="12" width="12" x="420" y="84" /><rect fill="#caedfa" height="12" width="12" x="434" y="0" /><rect fill="#caedfa" height="12" width="12" x="434" y="14" /><rect fill="#caedfa" height="12" width="12" x="434" y="28" /><rect fill="#caedfa" height="12" width="12" x="434" y="42" /><rect fill="#caedfa" height="12" width="12" x="434" y="56" /><rect fill="#caedfa" height="12" width="12" x="434" y="70" /><rect fill="#caedfa" height="12" width="12" x="434" y="84" /><rect fill="#caedfa" height="12" width="12" x="448" y="0" /><rect fill="#caedfa" height="12" width="12" x="448" y="14" /><rect fill="#caedfa" height="12" width="12" x="448" y="28" /><rect fill="#caedfa" height="12" width="12" x="448" y="42" /><rect fill="#caedfa" height="12" width="12" x="448" y="56" /><rect fill="#caedfa" height="12" width="12" x="448" y="70" /><rect fill="#caedfa" height="12" width="12" x="448" y="84" /><rect fill="#caedfa" height="12" width="12" x="462" y="0" /><rect fill="#caedfa" height="12" width="12" x="462" y="14" /><rect fill="#caedfa" height="12" width="12" x="462" y="28" /><rect fill="#caedfa" height="12" width="12" x="462" y="42" /><rect fill="#caedfa" height="12" width="12" x="462" y="56" /><rect fill="#caedfa" height="12" width="12" x="462" y="70" /><rect fill="#caedfa" height="12" width="12" x="462" y="84" /><rect fill="#caedfa" height="12" width="12" x="476" y="0" /><rect fill="#caedfa" height="12" width="12" x="476" y="14" /><rect fill="#caedfa" height="12" width="12" x="476" y="28" /><rect fill="#caedfa" height="12" width="12" x="476" y="42" /><rect fill="#caedfa" height="12" width="12" x="476" y="56" /><rect fill="#caedfa" height="12" width="12" x="476" y="70" /><rect fill="#caedfa" height="12" width="12" x="476" y="84" /><rect fill="#caedfa" height="12" width="12" x="490" y="0" /><rect fill="#caedfa" height="12" width="12" x="490" y="14" /><rect fill="#caedfa" height="12" width="12" x="490" y="28" /><rect fill="#caedfa" height="12" width="12" x="490" y="42" /><rect fill="#caedfa" height="12" width="12" x="490" y="56" /><rect fill="#caedfa" height="12" width="12" x="490" y="70" /><rect fill="#caedfa" height="12" width="12" x="490" y="84" /><rect fill="#caedfa" height="12" width="12" x="504" y="0" /><rect fill="#caedfa" height="12" width="12" x="504" y="14" /><rect fill="#caedfa" height="12" width="12" x="504" y="28" /><rect fill="#caedfa" height="12" width="12" x="504" y="42" /><rect fill="#caedfa" height="12" width="12" x="504" y="56" /><rect fill="#caedfa" height="12" width="12" x="504" y="70" /><rect fill="#caedfa" height="12" width="12" x="504" y="84" /><rect fill="#caedfa" height="12" width="12" x="518" y="0" /><rect fill="#caedfa" height="12" width="12" x="518" y="14" /><rect fill="#caedfa" height="12" width="12" x="518" y="28" /><rect fill="#caedfa" height="12" width="12" x="518" y="42" /><rect fill="#caedfa" height="12" width="12" x="518" y="56" /><rect fill="#caedfa" height="12" width="12" x="518" y="70" /><rect fill="#caedfa" height="12" width="12" x="518" y="84" /><rect fill="#caedfa" height="12" width="12" x="532" y="0" /><rect fill="#caedfa" height="12" width="12" x="532" y="14" /><rect fill="#caedfa" height="12" width="12" x="532" y="28" /><rect fill="#caedfa" height="12" width="12" x="532" y="42" /><rect fill="#caedfa" height="12" width="12" x="532" y="56" /><rect fill="#caedfa" height="12" width="12" x="532" y="70" /><rect fill="#caedfa" height="12" width="12" x="532" y="84" /><rect fill="#caedfa" height="12" width="12" x="546" y="0" /><rect fill="#caedfa" height="12" width="12" x="546" y="14" /><rect fill="#caedfa" height="12" width="12" x="546" y="28" /><rect fill="#caedfa" height="12" width="12" x="546" y="42" /><rect fill="#caedfa" height="12" width="12" x="546" y="56" /><rect fill="#caedfa" height="12" width="12" x="546" y="70" /><rect fill="#caedfa" height="12" width="12" x="546" y="84" /><rect fill="#caedfa" height="12" width="12" x="560" y="0" /><rect fill="#caedfa" height="12" width="12" x="560" y="14" /><rect fill="#caedfa" height="12" width="12" x="560" y="28" /><rect fill="#caedfa" height="12" width="12" x="560" y="42" /><rect fill="#caedfa" height="12" width="12" x="560" y="56" /><rect fill="#caedfa" height="12" width="12" x="560" y="70" /><rect fill="#caedfa" height="12" width="12" x="560" y="84" /><rect fill="#caedfa" height="12" width="12" x="574" y="0" /><rect fill="#caedfa" height="12" width="12" x="574" y="14" /><rect fill="#caedfa" height="12" width="12" x="574" y="28" /><rect fill="#caedfa" height="12" width="12" x="574" y="42" /><rect fill="#caedfa" height="12" width="12" x="574" y="56" /><rect fill="#caedfa" height="12" width="12" x="574" y="70" /><rect fill="#caedfa" height="12" width="12" x="574" y="84" /><rect fill="#caedfa" height="12" width="12" x="588" y="0" /><rect fill="#caedfa" height="12" width="12" x="588" y="14" /><rect fill="#caedfa" height="12" width="12" x="588" y="28" /><rect fill="#caedfa" height="12" width="12" x="588" y="42" /><rect fill="#caedfa" height="12" width="12" x="588" y="56" /><rect fill="#caedfa" height="12" width="12" x="588" y="70" /><rect fill="#caedfa" height="12" width="12" x="588" y="84" /><rect fill="#caedfa" height="12" width="12" x="602" y="0" /><rect fill="#caedfa" height="12" width="12" x="602" y="14" /><rect fill="#caedfa" height="12" width="12" x="602" y="28" /><rect fill="#caedfa" height="12" width="12" x="602" y="42" /><rect fill="#caedfa" height="12" width="12" x="602" y="56" /><rect fill="#caedfa" height="12" width="12" x="602" y="70" /><rect fill="#caedfa" height="12" width="12" x="602" y="84" /><rect fill="#caedfa" height="12" width="12" x="616" y="0" /><rect fill="#caedfa" height="12" width="12" x="616" y="14" /><rect fill="#caedfa" height="12" width="12" x="616" y="28" /><rect fill="#caedfa" height="12" width="12" x="616" y="42" /><rect fill="#caedfa" height="12" width="12" x="616" y="56" /><rect fill="#caedfa" height="12" width="12" x="616" y="70" /><rect fill="#caedfa" height="12" width="12" x="616" y="84" /><rect fill="#caedfa" height="12" width="12" x="630" y="0" /><rect fill="#caedfa" height="12" width="12" x="630" y="14" /><rect fill="#caedfa" height="12" width="12" x="630" y="28" /><rect fill="#caedfa" height="12" width="12" x="630" y="42" /><rect fill="#caedfa" height="12" width="12" x="630" y="56" /><rect fill="#caedfa" height="12" width="12" x="630" y="70" /><rect fill="#caedfa" height="12" width="12" x="630" y="84" /><rect fill="#caedfa" height="12" width="12" x="644" y="0" /><rect fill="#caedfa" height="12" width="12" x="644" y="14" /><rect fill="#caedfa" height="12" width="12" x="644" y="28" /><rect fill="#caedfa" height="12" width="12" x="644" y="42" /><rect fill="#caedfa" height="12" width="12" x="644" y="56" /><rect fill="#caedfa" height="12" width="12" x="644" y="70" /><rect fill="#caedfa" height="12" width="12" x="644" y="84" /><rect fill="#caedfa" height="12" width="12" x="658" y="0" /><rect fill="#caedfa" height="12" width="12" x="658" y="14" /><rect fill="#caedfa" height="12" width="12" x="658" y="28" /><rect fill="#caedfa" height="12" width="12" x="658" y="42" /><rect fill="#caedfa" height="12" width="12" x="658" y="56" /><rect fill="#caedfa" height="12" width="12" x="658" y="70" /><rect fill="#caedfa" height="12" width="12" x="658" y="84" /><rect fill="#caedfa" height="12" width="12" x="672" y="0" /><rect fill="#caedfa" height="12" width="12" x="672" y="14" /><rect fill="#caedfa" height="12" width="12" x="672" y="28" /><rect fill="#caedfa" height="12" width="12" x="672" y="42" /><rect fill="#caedfa" height="12" width="12" x="672" y="56" /><rect fill="#caedfa" height="12" width="12" x="672" y="70" /><rect fill="#caedfa" height="12" width="12" x="672" y="84" /><rect fill="#caedfa" height="12" width="12" x="686" y="0" /><rect fill="#caedfa" height="12" width="12" x="686" y="14" /><rect fill="#caedfa" height="12" width="12" x="686" y="28" /><rect fill="#caedfa" height="12" width="12" x="686" y="42" /><rect fill="#caedfa" height="12" width="12" x="686" y="56" /><rect fill="#caedfa" height="12" width="12" x="686" y="70" /><rect fill="#caedfa" height="12" width="12" x="686" y="84" /><rect fill="#caedfa" height="12" width="12" x="700" y="0" /><rect fill="#caedfa" height="12" width="12" x="700" y="14" /><rect fill="#caedfa" height="12" width="12" x="700" y="28" /><rect fill="#caedfa" height="12" width="12" x="700" y="42" /><rect fill="#caedfa" height="12" width="12" x="700" y="56" /><rect fill="#caedfa" height="12" width="12" x="700" y="70" /><rect fill="#caedfa" height="12" width="12" x="700" y="84" /><rect fill="#caedfa" height="12" width="12" x="714" y="0" /><rect fill="#aceafa" height="12" width="12" x="714" y="14" /><rect fill="#caedfa" height="12" width="12" x="714" y="28" /><rect fill="#a0e8fa" height="12" width="12" x="714" y="42" /><rect fill="#aceafa" height="12" width="12" x="714" y="56" /><rect fill="#caedfa" height="12" width="12" x="714" y="70" /><rect fill="#caedfa" height="12" width="12" x="714" y="84" /><rect fill="#caedfa" height="12" width="12" x="728" y="0" /><rect fill="#aceafa" height="12" width="12" x="728" y="14" /><g id="sub"><ellipse cx="20" cy="10" fill="#003366" rx="18" ry="8" /><rect fill="#888" height="6" rx="1" width="2" x="1" y="7" /><circle cx="2" cy="10" fill="#aaa" r="1.5" /><polygon fill="#005599" points="2,5 0,3 2,3" /><polygon fill="#005599" points="2,15 0,17 2,17" /><rect fill="#005599" height="10" width="2" x="28" y="-5" /><rect fill="#005599" height="2" width="6" x="26" y="-7" /><circle cx="14" cy="10" fill="#66ccff" r="2" /><circle cx="20" cy="10" fill="#66ccff" r="2" /><circle cx="26" cy="10" fill="#66ccff" r="2" /><circle class="bubble" cx="-5" cy="10" fill="white" opacity="0.5" r="2" /><circle class="bubble" cx="-11" cy="10" fill="white" opacity="0.5" r="2" /><circle class="bubble" cx="-17" cy="10" fill="white" opacity="0.5" r="2" /></g></svg>